<?xml version="1.0" standalone="no"?>
<!DOCTYPE svg PUBLIC "-//W3C//DTD SVG 1.1//EN" "http://www.w3.org/Graphics/SVG/1.1/DTD/svg11.dtd" >
<svg>
<metadata>
Created by FontForge 20090622 at Sat Sep 10 23:34:33 2016
 By deploy user
Created with the help of MyScriptFont.com
Copyright belongs to the Creator.
</metadata>
<defs>
<font id="Fofer" horiz-adv-x="10" >
  <font-face 
    font-family="Fofer"
    font-weight="500"
    font-stretch="normal"
    units-per-em="1000"
    panose-1="2 0 6 3 0 0 0 0 0 0"
    ascent="800"
    descent="-200"
    x-height="502"
    cap-height="609"
    bbox="8.66667 -64.9615 598.983 800.286"
    underline-thickness="50"
    underline-position="-100"
    unicode-range="U+0020-U+20AC"
  />
<missing-glyph horiz-adv-x="500" 
d="M50 0v533h400v-533h-400zM100 50h300v433h-300v-433z" />
    <glyph glyph-name=".notdef" horiz-adv-x="500" 
d="M50 0v533h400v-533h-400zM100 50h300v433h-300v-433z" />
    <glyph glyph-name=".null" horiz-adv-x="0" 
 />
    <glyph glyph-name="nonmarkingreturn" horiz-adv-x="333" 
 />
    <glyph glyph-name="space" unicode=" " horiz-adv-x="420" 
 />
    <glyph glyph-name="exclam" unicode="!" horiz-adv-x="91" 
d="M36 716l16 16l14 -13q11 -11 12.5 -22t-1.5 -64q-4 -72 -15 -120q-11 -46 -12 -96q-1 -107 -19 -98q-6 3 -13 20q-16 36 -2 271q4 62 7 78.5t13 27.5zM32 132q8 8 20 8q19 0 26.5 -18t-5.5 -31q-7 -7 -20.5 -7t-20.5 7t-7 20.5t7 20.5z" />
    <glyph glyph-name="numbersign" unicode="#" horiz-adv-x="482" 
d="M297 683q20 22 31 5q5 -10 3 -95q-2 -87 7 -93q8 -7 60 -17q46 -10 58.5 -15.5t14.5 -16.5q2 -7 -3 -8t-26 2q-24 3 -58 -2.5t-46 -14.5q-8 -6 -8 -57q0 -43 6 -53t33 -15q23 -4 23 -9t-12 -15t-28 -17q-13 -6 -18 -16t-13 -48q-8 -34 -12.5 -44.5t-12.5 -10.5
q-19 0 -21 50q0 24 -11.5 28t-42.5 -8q-38 -15 -45 -22.5t-5 -31.5q2 -28 -10 -34q-6 -5 -12 -2t-16 16q-13 16 -19 17.5t-24 -4.5q-26 -7 -35 0q-11 10 -6.5 26t21.5 24q15 8 21.5 12.5t12.5 10.5t7.5 19.5t2 27t0.5 45.5v84l-46 -3q-38 -3 -49 2.5t-8 24.5q2 13 18.5 21
t42.5 8q28 0 41 15q9 9 10.5 21t-0.5 57q-3 63 -2 79.5t8 24.5q17 17 34 -11q16 -26 11 -59q-3 -27 4 -63l7 -39h37q38 0 45.5 7.5t7.5 75.5q0 55 5 81t17 40zM287 366v57h-51q-51 0 -58.5 -7t-7.5 -83v-76h18q44 0 79 33q15 14 17.5 23.5t2.5 52.5z" />
    <glyph glyph-name="dollar" unicode="$" horiz-adv-x="371" 
d="M154 637q27 36 63 6q17 -13 60 -28q30 -10 57 -30.5t27 -33.5q0 -19 -20 -21.5t-40 13.5q-34 29 -63 29h-19v-113l62 -61q50 -50 62.5 -74t5.5 -55q-11 -48 -45 -62q-20 -8 -43 -27l-23 -20l-39 12q-37 11 -75 30q-36 18 -44 18t-24.5 19t-28.5 42q-18 36 -16.5 96.5
t20.5 77.5q9 7 8.5 27.5t-9.5 45.5l-11 27l16 14q17 14 59 30q44 17 60 38zM150 536q1 19 -5.5 23.5t-17.5 -8.5q-9 -11 -5.5 -24.5t14.5 -13.5q7 0 10 5t4 18zM130 448q-29 20 -42.5 23t-23.5 -9q-26 -29 -33 -74t8 -78q15 -30 46 -53.5t61 -27.5q31 -4 36.5 2t-0.5 38
q-1 8 -5 29.5l-6.5 36t-4.5 33.5t-2 32q0 14 -6 22t-28 26zM267 341q-50 51 -46 24q0 -3 1 -8q5 -16 9 -66q3 -44 11.5 -53.5t32.5 4.5q14 8 18 15t5 24q2 19 -3 28t-28 32z" />
    <glyph glyph-name="percent" unicode="%" horiz-adv-x="609" 
d="M451 623q14 10 32.5 8.5t25.5 -11.5q4 -7 -2 -16t-33 -34q-31 -27 -87.5 -105.5t-70.5 -113.5q-7 -19 -17 -28q-9 -6 -33 -54q-20 -41 -31.5 -53t-22.5 -4q-32 19 12 87q118 187 160 247t67 77zM111 594q64 17 115.5 -5t51.5 -66q0 -27 -8.5 -40t-42.5 -36
q-62 -42 -105.5 -50.5t-76.5 14.5q-32 23 -35 60t25 73q15 21 32 31.5t44 18.5zM229 544q-15 15 -39 15q-48 -1 -81.5 -21.5t-33.5 -49.5q0 -20 9.5 -27t37.5 -7q21 0 33.5 5t37.5 22q38 25 44 36.5t-8 26.5zM491 399q15 4 40.5 1.5t38.5 -8.5q41 -22 24 -79t-77 -100
q-35 -25 -72 -16.5t-49 44.5q-14 41 18 94t77 64zM543 354q-8 8 -15.5 7t-21.5 -10q-17 -11 -39 -40.5t-22 -41.5q0 -7 4 -9.5t16.5 -2.5t23 6.5t29.5 26.5q45 44 25 64z" />
    <glyph glyph-name="ampersand" unicode="&#x26;" 
 />
    <glyph glyph-name="parenleft" unicode="(" horiz-adv-x="193" 
d="M80 647q34 87 76 47q14 -13 13 -21.5t-19 -30.5q-29 -33 -45.5 -76t-29.5 -118q-8 -47 -9 -108t6 -84q8 -22 34 -47.5t50 -35.5q27 -10 27 -19q0 -8 -9.5 -8t-49.5 8q-28 6 -39.5 12t-26.5 24q-48 53 -48 151q0 41 15 120.5t31 119.5q15 38 24 66z" />
    <glyph glyph-name="parenright" unicode=")" horiz-adv-x="217" 
d="M15 673q11 14 32.5 10t42.5 -23t54.5 -62.5t46.5 -68.5q10 -20 14 -65t0 -86t-24 -74q-21 -31 -42 -54.5t-29 -23.5q-15 0 -2 34q5 14 15 28q12 19 26 59.5t14 56.5t-8.5 57.5t-13.5 49.5q-20 33 -61.5 77.5t-52.5 44.5q-4 0 -12 16q-8 15 0 24z" />
    <glyph glyph-name="asterisk" unicode="*" horiz-adv-x="354" 
d="M145 722q8 10 22 10q13 0 17.5 -18t4.5 -72q0 -52 9 -52q7 0 27.5 23t34.5 46q10 17 25.5 22t25 -4t5.5 -27q-5 -16 -26 -40t-21 -32q0 -7 17 -13t36 -6q23 0 22 -7q-2 -9 -36 -16l-52 -11q-35 -8 7 -32q10 -6 17.5 -13t7.5 -11q0 -7 -8 -8t-39 2q-34 3 -40.5 1.5
t-13.5 -14.5q-8 -15 -13 -36q-5 -20 -13 -29t-15 -2.5t-10 25.5q-3 28 -10 28q-6 0 -31 -18q-85 -57 -85 -25q0 6 49 53q54 51 47 59q-4 6 -35 2q-31 -3 -43 2t-12 22q0 9 5 13t19 7q15 4 18.5 8t2.5 16q-4 39 -3 50.5t9 16.5q8 4 13.5 1t17.5 -18q21 -23 27.5 -23t9.5 55
q2 55 10 65z" />
    <glyph glyph-name="plus" unicode="+" horiz-adv-x="445" 
d="M154 590q8 8 23 4t22 -16q8 -15 8 -106t8 -96q6 -4 44 -6q43 0 78.5 -5.5t35.5 -11.5q0 -5 -35 -13.5t-80 -14.5q-31 -4 -47 -15q-12 -7 -14.5 -17t-2.5 -53q0 -107 -15 -107q-22 0 -27 94q-2 56 -10.5 66t-49.5 3q-65 -11 -79 11q-7 11 2.5 20t32.5 13q82 12 96 24
q9 7 6 113t4 113zM404 365q0 9 15.5 9t15.5 -9t-15.5 -9t-15.5 9z" />
    <glyph glyph-name="comma" unicode="," horiz-adv-x="89" 
d="M27 241q8 10 22 10q19 0 24.5 -17t5.5 -75q0 -53 -2.5 -67.5t-18.5 -43.5q-31 -55 -44 -50q-2 0 -3 1q-5 5 7 57q11 52 6 115q-4 61 3 70z" />
    <glyph glyph-name="hyphen" unicode="-" horiz-adv-x="335" 
d="M17 391.5q7 7.5 30 7t37 -8.5q13 -8 52.5 -9t66.5 5q25 6 73.5 2t48.5 -11q0 -9 -12 -9q-11 0 -38 -9q-22 -9 -97 -22q-49 -9 -66 -9.5t-45 6.5q-43 10 -49 16q-8 7 -8 20.5t7 21z" />
    <glyph glyph-name="period" unicode="." horiz-adv-x="76" 
d="M18 219q7 7 28 7q14 0 17 -3t3 -17q0 -36 -28 -36q-18 0 -25.5 18t5.5 31z" />
    <glyph glyph-name="slash" unicode="/" horiz-adv-x="408" 
d="M360 675q11 8 17 8q7 0 14 -8t7 -16q0 -9 -40.5 -89.5t-58.5 -105.5l-64.5 -104.5t-62.5 -100.5q-31 -49 -105 -178q-19 -32 -24 -59q-4 -16 -7.5 -22t-10.5 -6q-8 0 -11 5.5t-4 23.5t4.5 34.5t27.5 57.5q77 151 113 204q8 12 30.5 52.5t35.5 55.5q23 28 92 166
q37 74 47 82z" />
    <glyph glyph-name="zero" unicode="0" horiz-adv-x="317" 
d="M125 648q29 20 79 0q37 -14 76 -92q11 -21 20.5 -67t5.5 -62q-10 -53 -41 -116t-63 -96q-24 -26 -44 -35.5t-50 -9.5q-31 0 -48.5 10.5t-34.5 39.5q-11 20 -13 37.5t-2 85.5q0 96 13 145t52 102q37 49 50 58zM203 594q-7 8 -17 12t-17.5 2t-7.5 -9q0 -9 -30 -40
q-31 -30 -46 -63q-14 -28 -24.5 -75t-10.5 -79q0 -42 21.5 -82t43.5 -40q15 0 58 46.5t60 80.5q12 24 15 40t3 58q0 41 -3 57.5t-15 41.5q-18 37 -30 50z" />
    <glyph glyph-name="one" unicode="1" horiz-adv-x="76" 
d="M12 558q3 16 6 21t12 5q18 0 23 -13q9 -23 12 -216v-24q3 -231 -3 -240q-12 -13 -28 19q-9 17 -13 39q-6 30 -9.5 203.5t0.5 205.5z" />
    <glyph glyph-name="two" unicode="2" horiz-adv-x="434" 
d="M107 609q30 9 77 -7t68 -43q13 -15 9 -44q-5 -60 -98 -153q-54 -55 -54 -68q0 -9 3 -10.5t17 2.5q26 6 142 4.5t133 -8.5q21 -8 20 -19q-1 -6 -11 -7q-5 0 -66 -6q-303 -32 -326 -12q-14 10 -10.5 26.5t22.5 31.5q53 46 100.5 97.5t61.5 80.5q16 31 17 38t-7 16
q-21 24 -50.5 29.5t-59.5 -7.5q-48 -20 -48 6q0 12 19 29t41 24z" />
    <glyph glyph-name="three" unicode="3" horiz-adv-x="359" 
d="M93 631q28 8 118 7q57 -2 75 -4.5t30 -10.5q53 -39 -52 -107q-41 -27 -39 -35q3 -9 37 -23q65 -27 80 -54q9 -18 6.5 -45.5t-16.5 -48.5q-20 -30 -35.5 -44.5t-49.5 -34.5q-94 -55 -180 -62q-59 -5 -57 23q1 5 4 12q7 14 24 26q11 7 16 7t20 -8q20 -11 43.5 -7t70.5 26
q38 18 75 51t45 56q6 22 -26 38t-131 41q-40 10 -50.5 20t2.5 24q11 12 32 20q18 6 109 61q18 10 16 17t-24 14q-24 7 -57 1q-27 -6 -78 -8q-28 -1 -38 0.5t-14 7.5q-7 12 4 22t40 18z" />
    <glyph glyph-name="four" unicode="4" horiz-adv-x="348" 
d="M301 699q17 21 30 -4q15 -31 0 -71q-9 -23 -17 -70t-7 -68q1 -28 -10 -63q-16 -55 -28 -180q-4 -46 -11.5 -66t-19.5 -18q-8 2 -17 18q-6 10 -5 35t10 88q18 119 5 127q-8 5 -42.5 13t-50.5 8q-26 0 -67 11.5t-49 20.5q-11 10 -12 32t8 44q10 22 48 78t46 59
q10 3 18.5 -5t8.5 -20t-22 -46q-32 -45 -38.5 -58t-6.5 -27q0 -12 3.5 -17t13.5 -9q30 -12 120 -23l35 -4l9 20q6 16 19 72.5t18 89.5q3 25 11 33z" />
    <glyph glyph-name="five" unicode="5" horiz-adv-x="409" 
d="M300 686q50 21 82 21q10 0 13.5 -2.5t3.5 -11.5q0 -18 -23.5 -31t-92.5 -32q-60 -17 -77 -24.5t-38 -27.5q-27 -25 -37 -43.5t-10 -42.5q0 -21 11 -31.5t47 -22.5q31 -10 69 -48q25 -24 33 -36.5t12 -33.5q13 -61 -31 -97q-25 -21 -80 -32.5t-118 -8.5q-18 0 -36 19
q-22 22 -17 50t35 58q25 24 23 8q-1 -7 -9 -23q-13 -24 -12.5 -36.5t13.5 -23.5q22 -20 45.5 -22t81.5 11q12 3 38 25q16 15 20.5 23.5t4.5 25.5q0 26 -15 47q-12 19 -42.5 36t-57.5 21q-66 9 -77 37q-5 14 3 47.5t24 66.5q15 31 18 52q4 25 13 33.5t34 11.5q29 4 79 16.5
t70 20.5z" />
    <glyph glyph-name="six" unicode="6" horiz-adv-x="337" 
d="M117 734q16 18 31 3q17 -17 -12 -75q-30 -57 -51.5 -137t-22.5 -131q0 -50 36 -3q90 119 163 119q28 0 37 -11q33 -37 29 -91t-43 -98q-29 -33 -52 -43.5t-72 -14.5q-57 -3 -65 -9t-11 -24q-4 -18 -10 -18q-7 0 -15.5 21t-5.5 32q4 15 -12 45q-40 80 -29 128q7 27 7 44
q0 16 22 79q13 37 30 90q7 24 21 53t25 41zM277 447q-20 18 -38.5 13t-50.5 -38q-37 -39 -55 -71q-12 -24 -13 -30t7 -15q16 -17 55.5 -9t69.5 36q11 9 25 42t14 48q0 11 -14 24z" />
    <glyph glyph-name="seven" unicode="7" horiz-adv-x="395" 
d="M324 641q45 8 56 -5q19 -23 -23 -157q-26 -81 -39 -133q-37 -156 -47 -170q-4 -6 -14 -6h-15l4 49q3 34 14.5 96t16.5 70q7 11 27 87t20 90q0 16 -3 19t-17 3q-36 0 -174 -30q-99 -23 -115 -3q-10 11 -0.5 21t35.5 14q6 1 133 27t141 28z" />
    <glyph glyph-name="eight" unicode="8" horiz-adv-x="372" 
d="M132 670q14 3 47.5 0t48.5 -1q29 3 42 -1q16 -4 28.5 -25.5t12.5 -43.5q0 -21 -9 -37t-37 -45q-23 -24 -18.5 -35.5t39.5 -16.5q45 -6 61 -24t15 -62q0 -24 -4 -36.5t-20 -35.5q-42 -62 -136 -76q-134 -21 -180 69q-14 28 -11.5 59t22.5 75q14 31 16 41.5t-3 30.5
q-10 44 19 100t67 64zM254 626q-9 9 -24.5 5.5t-49.5 -20.5q-60 -31 -60 -71q0 -10 5 -10q6 0 41 13q24 9 47 10q22 0 35 14q11 12 13 31t-7 28zM178.5 435.5q-24.5 12.5 -47.5 12.5q-17 0 -24 -5.5t-24 -32.5q-25 -38 -24.5 -57.5t26.5 -44.5q16 -15 28.5 -21.5t35.5 -10.5
q41 -8 72 2.5t67 44.5q24 24 29.5 33.5t5.5 26.5q0 26 -7 33t-60 7t-77.5 12.5z" />
    <glyph glyph-name="nine" unicode="9" horiz-adv-x="317" 
d="M121 636q52 19 96.5 -1.5t73.5 -75.5q14 -29 15.5 -70t-8.5 -110q-12 -73 -20 -138q-8 -61 -12.5 -79.5t-13.5 -24.5q-11 -7 -22 4q-9 10 -9.5 32t8.5 81q8 63 10 146.5t-5 84.5q-7 0 -31 -21q-49 -45 -102 -50.5t-76 32.5q-34 53 8 115q37 56 88 75zM214 583
q-33 32 -98 -9q-54 -33 -54 -69q0 -11 14 -24.5t25 -13.5q17 0 72.5 41.5t55.5 53.5q0 8 -15 21z" />
    <glyph glyph-name="colon" unicode=":" horiz-adv-x="88" 
d="M18 540q7 7 28 7q14 0 17 -3t3 -17q0 -36 -28 -36q-18 0 -25.5 18t5.5 31zM23 238q10 10 25 12t23 -7q7 -7 7 -26q0 -18 -7.5 -26t-26.5 -8t-26 7q-8 8 -6.5 23t11.5 25z" />
    <glyph glyph-name="semicolon" unicode=";" horiz-adv-x="193" 
d="M135 527.5q7 7.5 20 7.5q28 0 28 -34t-28 -34q-13 0 -20 7t-7 26.5t7 27zM72 315q7 9 21.5 9t21.5 -8t13 -29q9 -32 -10.5 -66t-63.5 -62q-47 -31 -44 -13q2 9 18 30q47 60 40 103q-3 27 4 36z" />
    <glyph glyph-name="less" unicode="&#x3c;" horiz-adv-x="427" 
d="M257 519q33 17 48 22t32 4q33 -1 30 -13q-2 -10 -34 -26q-70 -35 -116.5 -64.5t-46.5 -39.5q0 -14 84.5 -86t124.5 -91q41 -20 38 -31q-2 -8 -29 -7q-29 1 -62 18.5t-91 61.5l-15 12q-69 53 -85 62t-41 8h-7q-42 0 -59.5 4.5t-17.5 15.5q0 32 43 45q46 13 117 56
q28 17 87 49z" />
    <glyph glyph-name="equal" unicode="=" horiz-adv-x="445" 
d="M111 504q73 4 96 4t90 -4q65 -3 83 -9.5t18 -25.5q0 -15 -1 -15q-2 -1 -160.5 -6.5t-189.5 -6.5q-21 0 -31 10q-6 6 -6 10t5 14q9 16 23.5 20.5t72.5 8.5zM395 366q13 8 26.5 7.5t13.5 -8.5q0 -9 -14 -9q-12 0 -45 -12q-31 -12 -99 -29q-41 -11 -67.5 -14t-68.5 -3
q-58 1 -81 8t-25 24q-2 15 4 21q4 4 174.5 6.5t181.5 8.5z" />
    <glyph glyph-name="greater" unicode="&#x3e;" horiz-adv-x="372" 
d="M17 552q7 7 13.5 6.5t25.5 -7.5q17 -8 78.5 -22.5t66.5 -15.5q32 -9 79 -19t64.5 -22t17.5 -34q0 -25 -17 -47.5t-57 -48.5q-122 -81 -161 -128q-41 -48 -52 -26q-3 6 -3 16q0 14 5.5 24.5t23.5 28.5q20 23 58.5 49t54.5 40q31 27 55 45q25 21 25 28q0 9 -11.5 19
t-22.5 10q-16 0 -97 16.5t-103 23.5q-29 10 -39 20q-10 8 -11 22t7 22z" />
    <glyph glyph-name="question" unicode="?" horiz-adv-x="336" 
d="M165 728q25 6 69 -1.5t65 -21.5q24 -15 27 -54t-17 -70q-13 -21 -101 -108l-89 -90v-30q0 -30 15 -51q25 -33 9 -33q-11 0 -34.5 15t-31.5 26q-10 16 -9.5 46t11.5 47t45 56.5t50 52.5q61 53 80 77.5t19 48.5q0 21 -12.5 26.5t-60.5 5.5q-58 0 -83.5 -8t-45.5 -33
q-21 -27 -29 -27t-22 15q-22 25 8 58q8 9 52 25.5t85 27.5zM149 106q9 9 23 9q8 0 11 -3t3 -12q0 -14 -9 -22q-14 -12 -26.5 1t-1.5 27z" />
    <glyph glyph-name="at" unicode="@" horiz-adv-x="480" 
d="M248 656q27 16 57.5 15t55.5 -19q58 -42 58 -101q0 -33 -14 -55.5t-67 -73.5q-46 -45 -82.5 -66t-75.5 -24q-22 -2 -31.5 1.5t-29.5 18.5q-29 22 -34 22q-13 0 -18 -89.5t7 -112.5q7 -15 25 -32t33 -25q13 -6 61 -6q32 0 50.5 4t53.5 18q72 28 97.5 41t46.5 32
q30 27 29.5 19t-29.5 -35q-55 -52 -87 -71.5t-85 -33.5q-160 -43 -223 41q-23 29 -29.5 53.5t-6.5 77.5q0 56 15 106q22 68 45.5 112t56.5 80q21 22 27 32q7 9 38.5 33t55.5 38zM330 612q-16 8 -22.5 7.5t-35.5 -10.5q-31 -13 -76 -58q-20 -20 -32.5 -34.5t-10.5 -15.5
q2 -3 33 6q27 9 59 7t56 -13q17 -8 23 -8t21 9q13 8 16.5 15t5.5 29q1 27 -6.5 40.5t-30.5 25.5zM250 453q-13 13 -32.5 7.5t-40.5 -27.5q-17 -17 -21.5 -25t0.5 -14q10 -16 34.5 -13.5t47.5 21.5q15 13 18 27t-6 24z" />
    <glyph glyph-name="A" unicode="A" horiz-adv-x="380" 
d="M160 711q7 8 21 8t21 -8q9 -10 11 -44t-4 -66q-5 -29 -3.5 -39.5t14.5 -37.5q17 -31 41 -94q18 -45 48.5 -106.5t47.5 -85.5q14 -19 13 -31t-17 -12q-11 0 -20.5 8t-29.5 35l-11 14l-58 -10q-55 -9 -79 -16t-48 -20q-17 -10 -22 -18.5t-11 -35.5q-13 -63 -21.5 -84
t-20.5 -21q-13 0 -18 14q-6 20 -1 55t33 159q9 41 12 81q5 54 45.5 195t56.5 160zM193 462q-17 35 -27 43.5t-18 -5t-16 -55.5q-30 -145 -22 -154q7 -7 53.5 -8t69 5t25.5 17t-13 33q-13 18 -21 47q-7 28 -31 77z" />
    <glyph glyph-name="B" unicode="B" horiz-adv-x="347" 
d="M47 691q13 17 23.5 14t22.5 -25l13 -25l71 -4q132 -8 152 -34q17 -23 2 -53t-56 -52q-80 -47 -80 -60q0 -7 47 -25q45 -18 61 -29q24 -19 24 -61t-24 -83q-10 -17 -26 -31.5t-50 -36.5q-40 -26 -58 -34t-49.5 -13t-42 -4.5t-21.5 7.5q-16 10 -22 26q-6 14 -6 208
q-1 122 -2.5 159.5t-6.5 44.5q-10 13 -9 25t12 33q12 23 12 30q0 6 13 23zM269 587q-10 12 -77 7.5t-88 -18.5q-8 -5 -8 -51q0 -42 9 -45t53 21q7 3 23.5 12l30 16l22.5 12q28 15 36 25t-1 21zM139 402l-40 9q-1 0 -8 -7.5t-7 -93.5q0 -57 2 -75.5t10 -31.5q12 -20 19 -20
q24 0 86.5 49.5t78.5 81.5q7 12 5.5 17.5t-15.5 19.5q-30 31 -131 51z" />
    <glyph glyph-name="C" unicode="C" horiz-adv-x="394" 
d="M208 649q24 8 56.5 6.5t47.5 -11.5q17 -11 17 -31q0 -27 -13.5 -32.5t-35.5 12.5q-22 19 -52 14t-61 -32q-17 -16 -30 -26q-28 -17 -51 -73.5t-23 -106.5q0 -57 39 -99q9 -9 21.5 -11t58.5 -2q42 0 61.5 2.5t43.5 12.5q87 34 96 25q4 -4 -8 -12q-12 -7 -34 -26t-56 -37
q-23 -12 -39 -14.5t-63 -3.5q-48 0 -62 2.5t-31 14.5q-29 19 -45 43.5t-26 63.5q-9 35 -9 48.5t9 57.5q11 47 25.5 78t42.5 61q18 20 55.5 43.5t65.5 32.5z" />
    <glyph glyph-name="D" unicode="D" horiz-adv-x="472" 
d="M123 657q21 29 43 -14q9 -16 17 -21.5t32 -12.5q25 -6 40 -12.5t37.5 -18t37.5 -18.5q166 -78 123 -208q-12 -35 -63.5 -81.5t-118 -84t-117.5 -46.5q-31 -6 -58.5 0t-30.5 20q-1 6 6 8t32 2q27 0 43.5 5t56.5 26q91 46 149 100.5t58 94.5q0 31 -20.5 56t-66.5 50
q-4 2 -16 8.5t-16 8.5t-14 7.5t-15.5 7.5t-15 6t-17 6.5t-18 5.5t-22.5 5q-13 4 -22 -3q-18 -15 -19 -223q0 -120 -5 -129q-5 -8 -20 -7t-22 11q-10 10 -11.5 121t6.5 163q7 45 1 56t-40 15q-49 6 -47 26q2 22 55 34q10 3 21 4q28 4 28 11q0 8 9 21z" />
    <glyph glyph-name="E" unicode="E" horiz-adv-x="367" 
d="M45 669q24 26 33 -20l4 -21l104 -2q69 -1 88.5 -3.5t27.5 -10.5q24 -21 0 -27q-13 -4 -45 -5q-143 -4 -172 -23q-12 -7 -14.5 -15.5t-2.5 -39.5q0 -45 8 -53q16 -15 96 5q44 11 109 16q41 3 53.5 1.5t17.5 -7.5q9 -11 2 -21q-5 -8 -21 -12.5t-71 -12.5q-41 -6 -97 -22
t-71 -26q-10 -6 -11.5 -17t-0.5 -57l2 -66l20 -11q11 -8 20 -9t26 3q20 5 59 7t69.5 1t30.5 -6q0 -21 -91 -42q-66 -15 -91.5 -18t-45.5 3q-24 7 -32 22.5t-13 67.5q-3 43 -11 89q-7 37 -12 133q-4 68 -3 90t10 52q12 42 25 57z" />
    <glyph glyph-name="F" unicode="F" horiz-adv-x="359" 
d="M127 630q39 8 51 8t62 -11q32 -6 57 -14.5t38.5 -16.5t13.5 -16q0 -11 -16 -12.5t-59 7.5q-37 7 -55 7.5t-51 -5.5q-32 -5 -45 -9.5t-25 -16.5q-14 -12 -17.5 -21t-3.5 -29q0 -16 1.5 -25t7.5 -15.5t14 -8.5t27 -1t40.5 5l59.5 11q48 9 82 8t34 -11q0 -11 -44.5 -27
t-108.5 -30q-50 -10 -70 -22q-9 -5 -12.5 -9t-4 -18.5t2 -32t9.5 -60.5q5 -31 5 -42.5t-5 -17.5q-9 -10 -15 -10q-5 0 -23 54t-18 70q0 10 -13 48q-12 39 -12 61q0 24 -12 70q-20 74 -5 104q6 10 12.5 13t26.5 4q28 1 71 11z" />
    <glyph glyph-name="G" unicode="G" horiz-adv-x="479" 
d="M326 692q30 8 35 8.5t26 -5.5q33 -9 43.5 -36.5t-9.5 -52.5l-13 -18l-11 14q-12 14 -12 22q0 7 -9 16q-16 12 -64 -6.5t-102 -58.5q-65 -47 -106 -111t-44 -121q-2 -28 0.5 -39t13.5 -28q17 -26 47 -41t65 -15q52 0 112 14.5t81 32.5q13 11 16 19.5t3 38.5q0 43 -9 61
q-9 17 -27 27t-38 10q-17 0 -67.5 -12t-79.5 -23q-19 -7 -24.5 -7t-12.5 7q-11 11 -1.5 26.5t34.5 27.5q28 14 89 25.5t86 8.5q58 -8 79 -32.5t26 -87.5q3 -53 11 -64q8 -9 2 -14q-6 -3 -13 -29q-8 -29 -14.5 -34.5t-24.5 1.5q-13 6 -21 5t-26 -11q-64 -31 -157 -34.5
t-131 23.5q-36 26 -49.5 50.5t-18.5 71.5q-4 40 5 74.5t34 77.5q45 74 123.5 136.5t152.5 82.5z" />
    <glyph glyph-name="H" unicode="H" horiz-adv-x="438" 
d="M226 646q39 37 46 -45q2 -16 2 -37q0 -102 20 -126q5 -8 42 -8q38 0 65 -4.5t27 -11.5q0 -8 -27 -19t-62 -17l-44 -8l-6 -97q-8 -106 -21 -111q-6 -2 -19 12q-11 11 -13.5 25.5t-3.5 76.5l-3 86h-69q-49 0 -61 -2.5t-22 -12.5q-10 -11 -12 -25t0 -72q1 -53 -0.5 -68.5
t-8.5 -19.5q-11 -7 -21 4q-17 17 -24 310q-1 50 -1 80t3.5 46.5t8.5 22.5t16 7q12 2 17.5 -0.5t9 -13t3 -32.5t-1.5 -60q-4 -87 5 -100q7 -11 41 -7q1 1 3 1q10 1 35 4l33 4q14 1 21 2t13.5 5t8.5 8t1.5 15t-2.5 21.5t-7 32.5q-23 105 8 134z" />
    <glyph glyph-name="I" unicode="I" horiz-adv-x="89" 
d="M29 609q32 30 43 -16q6 -32 -1 -65q-6 -28 -1 -55q7 -34 8.5 -199t-4.5 -165q-9 0 -22 16.5t-19 35.5q-8 29 -17.5 201t-3.5 207q3 28 17 40z" />
    <glyph glyph-name="J" unicode="J" horiz-adv-x="318" 
d="M153 675q8 8 14 8q10 0 22.5 -15t18.5 -33q9 -27 27 -70q21 -44 47 -135q17 -59 21.5 -84t4.5 -60q-1 -57 -9 -80.5t-35 -49.5q-39 -38 -83 -40t-100 32q-71 42 -71 104q0 51 33 -9q18 -33 30 -45t37 -25q36 -19 63.5 -15t57.5 33l20 19v71q0 71 -10 102
q-15 55 -28.5 91.5t-47.5 111.5q-31 70 -12 89z" />
    <glyph glyph-name="K" unicode="K" horiz-adv-x="471" 
d="M46 783q9 15 22.5 17t18.5 -10q4 -12 10.5 -72.5t9.5 -122.5q3 -67 10 -67q5 0 56 51t88 93q15 16 25.5 15t9.5 -18q-3 -42 -130 -178q-31 -32 -38 -43.5t-7 -28.5q0 -16 3 -23t12 -13q23 -15 63.5 -21t116.5 -6q81 0 113 -3.5t32 -12.5q0 -14 -53.5 -27t-110.5 -13
q-54 0 -107 12q-52 13 -60 7q-7 -7 -10 -76q-5 -120 -34 -115q-12 3 -15.5 26t-4.5 99v91l-28 31q-28 31 -28 40t22 33l22 24l-3 107q-3 104 -9 147q-4 25 -3.5 35.5t7.5 21.5z" />
    <glyph glyph-name="L" unicode="L" horiz-adv-x="358" 
d="M44 673q8 9 22 9.5t21 -7.5q5 -6 1.5 -113t-12.5 -203q-6 -67 -3 -72q4 -6 46 -5t80 9q48 10 92 31q46 21 51 21q20 0 -21 -44q-17 -18 -32 -26.5t-53 -20.5q-53 -18 -114 -28t-80 -5q-38 10 -31 62q4 25 11 103.5t11 103.5q7 52 5 74q-8 94 6 111z" />
    <glyph glyph-name="M" unicode="M" horiz-adv-x="440" 
d="M332 672q18 20 33 0q9 -9 13 -118q9 -208 21 -302q4 -33 19 -45q19 -14 9 -27t-34.5 -7t-38 50.5t-15.5 94t-5 90t-10 40.5q-9 0 -9 -15q0 -24 -22.5 -93t-34.5 -83q-10 -12 -29.5 -12.5t-32.5 10.5q-10 10 -42 109q-40 127 -47 132q-2 2 -5 2q-6 0 -9 -31.5t-11 -162.5
q-4 -56 -7 -69.5t-15 -25.5q-10 -10 -15.5 -12t-12.5 2q-13 8 -16.5 40t2.5 75q7 43 5 141.5t-10 140.5q-6 32 0.5 41.5t31.5 6.5q23 -4 42 7q14 7 18.5 6.5t14.5 -12.5q14 -17 25 -59q12 -48 29 -104q18 -61 18 -72q0 -14 13.5 -46.5t19.5 -32.5q8 0 15 17q10 21 31.5 103
t25.5 114q4 35 14 65t21 42z" />
    <glyph glyph-name="N" unicode="N" horiz-adv-x="403" 
d="M329 710q9 11 23 9t26 -15l15 -15l-15 -27q-10 -17 -13.5 -36.5t-5.5 -78.5q-13 -269 -24 -317q-4 -23 -16.5 -41.5t-24.5 -18.5q-8 0 -45 35q-58 54 -131 202q-26 53 -35 53q-4 0 -5 -2.5t-0.5 -13.5t3 -27.5l7.5 -48.5q6 -36 14 -95q5 -40 4.5 -51.5t-7.5 -18.5
q-10 -11 -22 -4q-9 5 -20 40.5t-11 59.5q-2 29 -14 90q-18 100 -20.5 122.5t2.5 37.5q7 21 22 29q10 5 16.5 3.5t22.5 -14.5q22 -17 81 -131q47 -91 74.5 -129t45.5 -38q10 0 13 7t5 38q5 44 7 131q8 242 28 265z" />
    <glyph glyph-name="O" unicode="O" horiz-adv-x="333" 
d="M81 650q24 25 32 29.5t27 1.5q25 -3 64 -22q22 -11 34.5 -21.5t25.5 -30.5q25 -37 34 -58t17 -61q14 -66 0.5 -107.5t-64.5 -94.5q-44 -45 -66 -57t-62 -12q-30 0 -42 3t-29 16q-26 18 -34 39q-9 26 -8 92.5t12 110.5q12 51 12 71q0 29 11 52t36 49zM212 601
q-21 22 -40 20.5t-43 -26.5q-31 -34 -43.5 -78t-17.5 -140q-3 -46 -1 -60t10 -27q9 -14 16 -17.5t28 -3.5q28 0 47 9.5t43 35.5q82 88 63 165q-7 29 -26 66.5t-36 55.5z" />
    <glyph glyph-name="P" unicode="P" horiz-adv-x="379" 
d="M76 662q6 8 20 8t21 -8q6 -6 11 -26t12.5 -27t26.5 -7q17 0 40.5 -5t51 -12l38.5 -10q59 -13 70 -41t-31 -59l-54 -40q-32 -23 -84 -49q-59 -29 -69 -43q-11 -19 -11 -69q0 -40 2.5 -56t13.5 -35q17 -35 13.5 -54.5t-26.5 -19.5q-16 0 -26.5 16.5t-20.5 55.5q-7 30 -9 67
t-2 132v152l-20 8q-33 11 -33 34.5t32 35.5q20 7 23 25q3 17 11 27zM232 538q-28 8 -63.5 8.5t-42.5 -6.5q-9 -9 -8.5 -72t9.5 -67q12 -4 88 45t76 62q0 15 -59 30z" />
    <glyph glyph-name="Q" unicode="Q" horiz-adv-x="427" 
d="M159 623q26 13 48.5 2.5t28.5 -39.5q3 -17 17 -31t54 -41q74 -50 75 -128q0 -24 -4 -36t-20 -35q-14 -22 -17.5 -33t-1.5 -26q2 -21 23.5 -68t39.5 -69q10 -13 13.5 -24t0 -17t-13.5 -6q-19 0 -36.5 20t-43.5 72q-35 68 -41 71.5t-53 -19.5q-33 -16 -49 -19.5t-49 -3.5
q-63 -1 -89 24.5t-30 89.5q-2 30 0.5 49t13.5 53q31 100 77 153q24 27 31 40q5 10 26 21zM250 509q-44 22 -66.5 23.5t-40.5 -16.5t-43 -68q-26 -51 -30.5 -67t-4.5 -56q0 -36 2.5 -47t11.5 -20q9 -8 19.5 -11t36 -3t41 4t40.5 16l39 19l3 42q3 43 11 53q6 7 9 6t11 -10
q11 -13 11 -22q0 -13 17 -8q14 4 19 15q9 21 5 40.5t-24 49.5q-16 25 -28.5 35.5t-38.5 24.5z" />
    <glyph glyph-name="R" unicode="R" horiz-adv-x="403" 
d="M25 663q6 7 20 7t21 -8q7 -10 10 -28q3 -14 6.5 -16t20.5 1q92 20 164 -42q36 -32 29 -81.5t-53 -76.5q-19 -12 -53 -22.5t-54 -10.5q-23 0 -20 -8q2 -10 32 -22q53 -17 70 -22q22 -6 56.5 -18.5t63.5 -19.5q32 -8 43.5 -14t11.5 -16q0 -9 -26 -10.5t-64 4.5
q-54 10 -157 40h-1q-18 6 -25.5 8t-18 4t-14 2.5t-9 -1.5t-6 -4t-3 -8.5t-3 -11.5t-1.5 -17v-2q-3 -36 -11 -51t-21 -10q-15 6 -19 45.5t-4 184.5q0 140 2.5 175.5t12.5 48.5zM222 541q-10 13 -19 15.5t-40 2.5q-44 0 -64 -12q-15 -9 -17.5 -16t-2.5 -35q0 -39 7 -47
q8 -7 50.5 -6.5t58.5 8.5q17 9 34 27q15 16 13.5 28.5t-20.5 34.5z" />
    <glyph glyph-name="S" unicode="S" horiz-adv-x="457" 
d="M180 686q6 3 86 0q50 0 73 -3.5t49 -13.5q35 -13 47.5 -24.5t10.5 -29.5q-1 -18 -12.5 -22t-26.5 8q-19 15 -37.5 21.5t-55.5 11.5q-44 4 -50 8t-44 -4.5t-45 -15.5q-8 -9 4.5 -30.5t40.5 -45.5q43 -36 94 -86t61 -66q12 -20 13 -50t-9 -46q-20 -31 -71 -55.5t-94 -24.5
q-39 -1 -98.5 20t-82.5 43q-15 16 -19 25.5t-4 31.5q0 21 3.5 30t16.5 23q24 25 34 18q8 -5 -8 -25q-26 -34 18 -76q22 -22 50 -30.5t76 -8.5q40 0 62.5 7t42.5 26q39 38 1 94q-19 27 -25 27q-5 0 -57 49q-51 49 -71 63q-18 12 -31 37.5t-13 50.5q0 20 14 36.5t35 20.5
q14 3 22 6z" />
    <glyph glyph-name="T" unicode="T" horiz-adv-x="532" 
d="M259 627q219 3 247 5q10 1 13 -1.5t3 -11.5q0 -16 -12.5 -22.5t-61.5 -14.5q-36 -6 -139.5 -12.5t-144.5 -4.5q-2 0 -39.5 1t-70 3t-36.5 4q-8 6 -8 20q0 18 13 23q22 8 213 11h1h1h1h1h1h1h1h1h1h1h1h1h1h1h1h1h1h1h1h1h1h1h1zM228 527q6 8 20 7.5t21 -9.5q8 -8 0 -29
q-9 -24 -13 -73q-10 -119 -15 -151.5t-16 -46.5q-9 -13 -12.5 -14t-10.5 6q-6 6 -8 26.5t-2 83.5q0 66 2.5 90.5t12.5 55.5q15 47 21 54z" />
    <glyph glyph-name="U" unicode="U" horiz-adv-x="367" 
d="M279 549q7 9 21.5 10t21.5 -8q6 -9 -1 -48q-20 -100 11 -339q5 -29 16 -45q15 -20 5.5 -30.5t-34.5 -0.5q-18 7 -35 68.5t-17 118.5q0 49 -10 50q-10 0 -35 -35q-9 -12 -22 -31q-23 -34 -40.5 -49t-41.5 -21q-23 -7 -44.5 2.5t-34.5 30.5q-11 18 -21.5 55.5t-6.5 47.5
q4 13 7.5 40l8 64t5.5 46q4 34 11.5 47t22.5 13q30 0 21 -59q-6 -28 -9 -116q-3 -62 -1.5 -76t11.5 -25q20 -20 39 -10t57 60q74 98 83 187q3 44 12 53z" />
    <glyph glyph-name="V" unicode="V" horiz-adv-x="359" 
d="M291 699q10 13 17 17t20 4q21 0 21 -6t-21 -41q-21 -31 -52 -137q-29 -98 -49.5 -153t-51.5 -118q-31 -60 -42 -72.5t-28 -3.5q-14 7 -30.5 57.5t-22.5 102.5q-3 31 -11.5 87t-11.5 86q-6 47 -12 64q-7 18 -6.5 38.5t7.5 27.5q11 8 25 4t20 -16q8 -17 8 -43q0 -31 7 -62
l5 -32.5t8 -48.5q23 -160 38 -160q7 0 17 26l32 79q34 81 56 166q27 95 57 134z" />
    <glyph glyph-name="W" unicode="W" horiz-adv-x="432" 
d="M394 620q17 18 25.5 13t-3.5 -26q-10 -18 -23 -150q-9 -93 -37.5 -171.5t-53.5 -78.5q-20 0 -52 51.5t-53 119.5q-8 25 -15 30.5t-17 -5.5q-5 -7 -20.5 -62.5t-23.5 -95.5q-5 -32 -13 -42q-7 -7 -21 -7.5t-20 7.5q-21 25 -38 220q-5 60 -12 76q-15 37 -3 61q9 17 30 5
q33 -17 39 -111q3 -34 5.5 -43t10.5 -9q7 0 13.5 11.5t17.5 43.5q15 44 25.5 56t28.5 7q16 -4 27 -22t22 -57q7 -29 31 -95q20 -50 31 -51q7 0 16 17q6 13 22 91t16 94.5t17.5 63.5t27.5 59z" />
    <glyph glyph-name="X" unicode="X" horiz-adv-x="428" 
d="M300 613q16 12 27 4t11 -31q0 -20 -21 -43q-10 -12 -34 -48.5t-40 -51.5q-23 -22 -23 -33q0 -21 36.5 -74.5t67.5 -78.5l59 -47q35 -29 35 -34q0 -6 -24 -6q-27 0 -82.5 40.5t-90.5 85.5q-2 3 -6 8l-15.5 20t-13 10.5t-12 4t-15.5 -8.5t-20 -16l-29 -28l-9 -9
q-72 -70 -81 -70q-27 0 13 58q23 33 61 72q40 42 44 59.5t-18 47.5q-64 86 -76 111.5t5 36.5q11 7 35.5 -13.5t54.5 -64.5q33 -47 41 -47q18 0 77 89q33 49 43 57z" />
    <glyph glyph-name="Y" unicode="Y" horiz-adv-x="319" 
d="M268 698q13 9 28 9q26 0 1 -48q-12 -23 -32 -135t-20 -160q0 -31 -2.5 -43.5t-9.5 -20.5q-13 -13 -20 -45q-1 -6 -14 -54t-22 -90t-7 -55q4 -20 -5 -28t-26 0q-15 9 -18 26t6 53q35 149 35 184q0 19 -31 66q-30 46 -47 89q-18 47 -48 110q-31 67 -24 77q6 9 19.5 11
t22.5 -5t25 -38.5t27 -63.5q14 -39 40 -91.5t32 -52.5q12 0 17 16q5 19 16 110q17 151 57 179z" />
    <glyph glyph-name="Z" unicode="Z" horiz-adv-x="458" 
d="M305 636q4 4 29 0t33 -10q9 -8 6.5 -32t-14.5 -42q-17 -25 -15 -36.5t23 -14.5q23 -4 45 8q36 23 36 5q0 -6 -14 -14.5t-26 -8.5q-8 0 -29 -12q-20 -12 -57.5 -25t-52.5 -24.5t-37 -44.5q-15 -23 -41 -55.5t-45 -65.5q-27 -45 -21 -56q9 -14 30.5 -9t81.5 36q81 40 84 40
q11 0 -1 -27q-4 -11 -11 -20q-13 -17 -72 -53.5t-84 -41.5q-39 -9 -67.5 11t-24.5 53q3 24 25.5 70t41.5 68q70 79 39 74h-4q-18 -4 -74 -11q-50 -6 -64.5 -2t-14.5 24q0 25 77 32q41 4 95.5 17t64.5 22q12 10 35.5 42.5t23.5 38.5q0 3 -23.5 3t-57 -2.5t-58.5 -7.5
q-96 -18 -119 3q-11 10 -12.5 24.5t7.5 20.5q6 4 47 6q49 0 130.5 7t84.5 10z" />
    <glyph glyph-name="bracketleft" unicode="[" 
 />
    <glyph glyph-name="backslash" unicode="\" horiz-adv-x="259" 
d="M14 673q12 12 26 8t28 -23t20 -46q7 -27 16 -47q24 -64 41 -135q14 -64 42.5 -144.5t42.5 -100.5q19 -25 19 -33q0 -6 -11 -6t-25.5 5.5t-22.5 13.5q-25 22 -102 295q-13 46 -68 171q-9 21 -10 28.5t4 13.5z" />
    <glyph glyph-name="bracketright" unicode="]" 
 />
    <glyph glyph-name="a" unicode="a" horiz-adv-x="315" 
d="M99 571q35 32 62.5 24.5t51.5 -55.5l18 -36l-4 -95q-2 -61 0 -88.5t11 -69.5q12 -56 20.5 -76.5t28.5 -36.5q18 -16 17.5 -22.5t-20.5 -6.5q-21 0 -45 22q-15 15 -23 30t-18 49q-26 89 -37 91q-5 1 -12 -12q-2 -3 -5 -9q-11 -21 -36 -53q-18 -22 -25.5 -27t-22.5 -4
q-39 4 -47.5 56t14.5 147q20 84 34 117t38 55zM170 493q0 30 -2 36t-12 6q-27 0 -55.5 -54t-42.5 -133q-7 -41 1 -60q5 -13 10.5 -16t13 1.5t21.5 19.5q23 25 44.5 91t21.5 109z" />
    <glyph glyph-name="b" unicode="b" horiz-adv-x="308" 
d="M21 743l-4 57h58l-4 -81q-3 -67 -7 -217q-3 -129 5 -133q5 -2 17 16q5 8 12 21q30 53 70.5 91t66.5 38q20 0 37 -19t23 -47q7 -32 -2.5 -63t-39.5 -76q-22 -34 -68 -81.5t-68 -59.5q-13 -7 -55 -8.5t-48 4.5q-5 6 -4 64l7 220.5t7 210.5q0 3 -3 63zM233 465
q-9 9 -17.5 5.5t-28.5 -23.5q-18 -19 -35.5 -47.5t-51.5 -92.5q-30 -59 -17 -68q1 -1 3 -1q7 0 40 25t46 41q45 51 61 81q7 13 7 43t-7 37z" />
    <glyph glyph-name="c" unicode="c" horiz-adv-x="282" 
d="M84 533q26 27 36 33t30 6q27 0 38.5 -9.5t19.5 -37.5q10 -41 -5 -55q-14 -12 -29 20q-10 20 -23.5 19t-36.5 -25q-16 -16 -23.5 -30.5t-15.5 -42.5q-28 -102 9.5 -135.5t140.5 0.5q42 14 46 9q4 -4 -7.5 -15.5t-31 -24t-37.5 -19.5q-118 -44 -168 31q-12 18 -14.5 31.5
t-2.5 54.5q0 61 17 105t57 85z" />
    <glyph glyph-name="d" unicode="d" horiz-adv-x="305" 
d="M244 772q8 9 22 9.5t21 -8.5q7 -8 8 -30q0 -19 -7 -109t-13 -146q-9 -82 -10 -189t6 -139q7 -28 4.5 -39.5t-15.5 -11.5q-19 0 -35.5 52.5t-16.5 112.5q0 51 -7.5 51t-42.5 -34q-21 -20 -34 -28t-33 -12t-29 -3.5t-19 7.5q-14 9 -23.5 29t-9.5 39q0 58 50 141
q27 46 49 63t68 29l42 11l3 31q1 7 4.5 51t7.5 80t10 43zM212 490q-6 7 -25 7t-32 -7q-31 -17 -60 -65t-29 -82q0 -23 8.5 -27t34.5 8q56 25 92 98q15 31 17.5 45t-6.5 23z" />
    <glyph glyph-name="e" unicode="e" horiz-adv-x="351" 
d="M121 460q23 6 42.5 5t64.5 -10q66 -13 91 -31.5t21 -50.5q-1 -13 -6 -19t-20 -14q-27 -13 -104 -15.5t-107 9.5q-27 10 -33 5t-6 -40q0 -22 3 -34t13 -27q18 -28 38.5 -35.5t77.5 -7.5q65 0 90 12q36 17 37 4q0 -11 -29 -33t-57 -33q-40 -15 -85.5 -7.5t-77.5 33.5
q-33 28 -50.5 71t-12.5 84q6 42 40 84t70 50zM236 415q-23 8 -61 8t-41 -9q-1 -7 -1 -11t8.5 -6.5t21.5 -3t37 -0.5q63 0 60 9q-1 5 -24 13z" />
    <glyph glyph-name="f" unicode="f" horiz-adv-x="264" 
d="M98 696q17 11 32 11q14 0 39.5 -16.5t37.5 -33.5q11 -16 29 -74t18 -79q0 -27 -11 -25q-7 1 -11 17q-5 21 -30 72.5t-36 62.5q-13 15 -33 15q-13 0 -17 -4t-8 -19q-27 -92 -16 -138q8 -30 8 -55q0 -26 10 -32t37 3q17 6 36.5 8.5t32.5 0.5t13 -7q0 -8 -57 -35l-57 -28
l-3 -94q-2 -57 -4.5 -77.5t-9.5 -26.5q-10 -10 -19 -7q-23 9 -23 93v57l-46 39l15 27q11 18 14 39t5 108q2 89 5 109t17 44q16 31 32 45z" />
    <glyph glyph-name="g" unicode="g" horiz-adv-x="401" 
d="M305 699q9 24 28 45t35 5q17 -16 -11 -71q-16 -32 -33 -76q-12 -29 -14 -67t3 -138q0 -4 22 -18q18 -10 34 -37t21 -55q4 -23 -3 -56.5t-20 -51.5q-35 -49 -57 -72.5t-58 -50.5q-78 -58 -118.5 -69.5t-79.5 13.5q-46 30 -44 91.5t50 138.5q19 29 18.5 42.5t-21.5 20.5
q-46 16 -46 67q0 63 49 103t118 32q25 -3 30.5 -1.5t8.5 12.5q4 15 20 35q18 20 68 158zM196 440q-7 7 -32.5 7t-47.5 -7q-19 -7 -31 -25t-12 -38t9.5 -27t36.5 -7q35 0 52 12.5t24 43.5q7 32 1 41zM330 352q-31 48 -52 27q-8 -8 -7.5 -21.5t9.5 -16.5q9 -4 9 -18
q0 -13 -14.5 -18t-48.5 -5q-47 0 -77 -41q-21 -28 -31 -39q-16 -17 -31 -49.5t-21 -60.5q-6 -23 -5 -30t12 -18q26 -28 78 -6.5t121 88.5q62 62 70 77q8 17 8 59q0 27 -3 39.5t-17 32.5z" />
    <glyph glyph-name="h" unicode="h" horiz-adv-x="309" 
d="M65 723q15 19 32 -1q7 -9 8 -55.5t-5 -95.5q-5 -41 2 -45q8 -5 75 -6h8q50 -1 61.5 -8t34.5 -48q2 -4 3 -7q13 -23 14.5 -32t-4.5 -27q-8 -28 -12 -88q-4 -47 -12 -64.5t-22 -11.5q-22 9 -22 87q0 51 -7.5 58t-39 7t-44.5 -13q-10 -11 -23.5 -49.5t-18.5 -69.5
q-3 -22 -16.5 -47t-24.5 -33q-12 -6 -22 4t-13.5 64.5t4.5 85.5q5 17 4.5 25t-6.5 17q-9 12 -9 31.5t8 31.5q12 19 22 132q14 145 25 158z" />
    <glyph glyph-name="i" unicode="i" horiz-adv-x="118" 
d="M24 677q-20 18 -12 47q6 26 27 17q6 -2 13 -9q16 -15 13 -41.5t-21 -26.5q-7 0 -20 13zM41 562q21 25 39 -19q12 -28 17 -74l9 -84q9 -66 -14 -109q-14 -25 -31 -16q-7 5 -9 20.5t-2 72.5q0 80 -8 143q-6 35 -6 47.5t5 18.5z" />
    <glyph glyph-name="j" unicode="j" horiz-adv-x="301" 
d="M190 549q-1 13 4.5 24t14.5 11q10 0 23 -15.5t13 -25.5q0 -11 -4.5 -13t-21.5 0q-18 1 -22.5 4t-6.5 15zM172 502q9 9 20 7t18 -13q9 -15 19 -62q10 -50 25 -100q51 -175 31 -236q-12 -37 -30.5 -54.5t-50.5 -24.5q-33 -6 -58.5 -1.5t-54.5 22.5q-28 18 -54.5 60.5
t-26.5 70.5q0 16 12 10q9 -3 13 -15q6 -15 41 -52t53 -46q16 -9 40 -9q40 0 59.5 29.5t10.5 77.5q-1 7 -8 42l-11 56q-12 63 -34 129q-32 92 -14 109z" />
    <glyph glyph-name="k" unicode="k" horiz-adv-x="383" 
d="M14 648q9 10 17.5 9t23.5 -15q12 -13 18 -30.5t16 -69.5q8 -39 16 -43q14 -5 60 34q18 14 46 14q26 0 25 -9q-1 -12 -54 -48q-87 -59 -87 -76q0 -20 77 -51.5t124 -31.5q28 0 54 -4q14 -2 18.5 -6t4.5 -12q0 -10 -5.5 -12.5t-28.5 -5.5q-28 -4 -57.5 -0.5t-109.5 19.5
q-77 15 -82 15q-7 0 -7 -16q0 -23 -14 -76t-23 -64q-7 -9 -11.5 -10t-11.5 3q-11 7 -12.5 28t7.5 47q9 27 9 50q0 22 7 46q6 23 -4 36q-9 14 -8.5 35t9.5 39q8 14 7.5 32t-8.5 90q-4 35 -13.5 54t-2.5 29z" />
    <glyph glyph-name="l" unicode="l" horiz-adv-x="101" 
d="M36 756q3 4 20 0t24 -12q9 -8 10.5 -25.5t-0.5 -96.5q-5 -109 -7 -118q-10 -29 -20 -241q-6 -103 -7 -103q-1 -2 -14 -2q-19 0 -25.5 22t-6.5 82q0 71 8 128q9 61 13 209q1 38 2.5 77t2 59t0.5 21z" />
    <glyph glyph-name="m" unicode="m" horiz-adv-x="458" 
d="M299 480l14 23t18.5 27t23.5 28.5t23 18.5t25 6.5t22 -14.5q23 -29 23.5 -119.5t-21.5 -198.5q-3 -20 -13.5 -27.5t-20.5 2.5q-6 6 -6.5 22.5t3.5 70.5q6 76 6.5 99.5t-3.5 56.5q-5 35 -13 35t-26 -26.5t-38 -66.5t-48.5 -88t-35.5 -54q-10 -8 -24 -4t-20 17q-8 16 -8 66
q0 32 -3 47.5t-13 34.5q-11 22 -18.5 27t-15 -4.5t-16.5 -37.5q-14 -46 -14 -56q-2 -13 -10 -37q-10 -24 -16 -59q-7 -34 -13 -41q-7 -9 -21 -8t-21 10q-13 15 -8 124t19 136q6 10 24.5 18t35.5 8q13 0 24 9q15 11 35.5 9t33.5 -16q12 -13 26 -52t14 -59q0 -14 8 -14
q9 0 24 19t44 68z" />
    <glyph glyph-name="n" unicode="n" horiz-adv-x="324" 
d="M192 577q23 19 46 19q20 0 33 -10.5t29 -39.5q9 -18 11.5 -36.5t2.5 -73.5q0 -71 -7.5 -129t-17.5 -68q-17 -17 -30 8.5t-4 57.5q7 23 6.5 103t-7.5 102q-5 17 -9.5 21t-17.5 4q-16 0 -28.5 -12t-40.5 -53q-42 -64 -76 -150q-16 -40 -31 -59t-27 -14t-13.5 19.5t7.5 52.5
q11 48 7 132q-4 82 4 89t21 -7t23 -40q6 -14 11 -20t9 -5q10 2 43 45q34 44 56 64z" />
    <glyph glyph-name="o" unicode="o" horiz-adv-x="268" 
d="M105 502q48 42 103 0q50 -38 50 -125q1 -27 -2.5 -42t-16.5 -40q-59 -113 -138 -114q-24 -1 -41 8.5t-34 31.5q-11 14 -15 53.5t3 62.5q21 67 40.5 103t50.5 62zM186 465q-6 8 -12 8q-7 -1 -35 -21t-38 -32q-20 -24 -31.5 -89t2.5 -79q9 -9 35 -7t43 12q33 20 57 86
l13 33l-14 41q-14 42 -20 48z" />
    <glyph glyph-name="p" unicode="p" horiz-adv-x="268" 
d="M34 601q7 7 21 7t20.5 -8t5.5 -28q-1 -15 5.5 -21.5t42.5 -25.5q81 -43 112 -90q10 -15 13.5 -27.5t3.5 -37.5t-3.5 -36.5t-15.5 -28.5q-20 -29 -53 -51t-57 -22q-25 0 -38 9q-17 13 -21 3q-5 -12 -7 -111q-2 -77 -4 -99t-9 -28q-11 -11 -21.5 -4.5t-15.5 26.5
q-6 25 -2 166q5 182 5 254q2 80 5.5 110.5t12.5 42.5zM127 466q-13 7 -31 7q-20 0 -26 -20.5t-6 -83.5v-73l24 -7q31 -10 50 -7t35 20q19 20 26 34.5t7 35.5q0 16 -6 26t-26 30q-33 31 -47 38z" />
    <glyph glyph-name="q" unicode="q" horiz-adv-x="424" 
d="M165 522q19 4 36 1t24 -11q7 -9 -4 -30q-7 -13 -8 -26t1 -43q4 -42 9 -162q3 -94 11 -125t34 -59q21 -20 33 -20q22 0 49.5 43.5t27.5 78.5q0 19 -10 47q-11 34 -1 34q2 1 8 -1q20 -8 35 -76q5 -27 3 -39t-19 -53q-23 -57 -34 -67q-19 -19 -61.5 -19t-62.5 19
q-11 9 -31 39q-15 25 -22.5 65t-13.5 129q-2 41 -5 55.5t-9.5 18.5t-12.5 1.5t-18 -13.5q-64 -61 -97 -28q-17 17 -17 40t18 60q20 42 40 71q17 23 47 44.5t50 25.5zM131 410q0 24 -19 6q-8 -7 -17 -21q-24 -38 -11 -39q9 0 28 21.5t19 32.5z" />
    <glyph glyph-name="r" unicode="r" horiz-adv-x="298" 
d="M189 605q16 9 39.5 13.5t41.5 3t18 -9.5q0 -4 -3.5 -7t-8.5 -3q-13 0 -50 -20t-54 -36q-16 -16 -43 -59.5t-36 -70.5q-9 -24 -9 -47q0 -33 -11 -78.5t-21 -56.5l-14 -14l-14 13q-13 12 -14 35t10 74q10 47 7 72q-17 142 -11 159q3 11 22 11q26 0 32 -43q6 -45 35 -3
q11 17 29 31.5t55 35.5z" />
    <glyph glyph-name="s" unicode="s" horiz-adv-x="348" 
d="M116 603q64 16 105.5 0.5t41.5 -54.5q0 -47 -41 -11q-16 14 -26.5 17.5t-30.5 3.5q-21 0 -26.5 -2t-5.5 -12q0 -12 31 -43t79 -66q36 -27 64.5 -64.5t29.5 -62.5q3 -46 -10 -60.5t-69 -25.5q-29 -5 -41.5 -6.5t-18.5 -1t-22.5 4t-38.5 6.5q-127 16 -127 78q0 22 19 40
q15 14 24 16.5t17 -5.5q7 -7 0 -28q-4 -13 -3 -19t7 -13q10 -12 52 -19t98 -7q55 0 67 7t3 34q-5 16 -8.5 23t-24.5 25.5t-46.5 37l-92.5 66.5q-108 78 -63 119q13 11 57 22z" />
    <glyph glyph-name="t" unicode="t" horiz-adv-x="372" 
d="M151 710q9 10 16 9t20 -12q9 -10 10.5 -21.5t-0.5 -61.5q-4 -72 4 -107l8 -37l76 -4q77 -4 77 -13t-12 -9q-17 0 -67 -13t-61 -21l-16 -10l2 -90q2 -60 0.5 -76t-8.5 -21q-22 -13 -31 31q-3 16 -5 41q-3 34 -5.5 51t-6 30.5t-10.5 16.5t-14.5 2.5t-23.5 -4.5
q-49 -16 -71.5 -14.5t-22.5 19.5q0 30 80 49q48 11 57 20q7 8 -1 59q-7 46 -5 110.5t10 75.5z" />
    <glyph glyph-name="u" unicode="u" horiz-adv-x="252" 
d="M33 562q15 19 32 -1q7 -9 8 -60.5t-5 -109.5q-5 -42 1.5 -47.5t29.5 20.5q31 31 63 117q14 37 25 47.5t23 -1.5q9 -9 10 -28t-3 -116q0 -24 5.5 -61t13.5 -58q6 -18 6 -23.5t-7 -13.5q-10 -10 -21 -4q-13 8 -25 31.5t-17 51.5q-7 34 -17.5 35t-34.5 -31
q-23 -32 -39.5 -43t-36.5 -9q-24 2 -30 22t-3 88q8 177 22 194z" />
    <glyph glyph-name="v" unicode="v" horiz-adv-x="334" 
d="M142 306q10 0 22.5 39.5t24.5 90.5t35 105t52 76q26 21 43 15q5 -1 5 -7q0 -8 -22 -34q-52 -61 -74 -207q-3 -27 -12 -49q-8 -18 -21 -63q-9 -32 -24.5 -54.5t-28.5 -22.5q-18 0 -48 60t-41 119q-7 36 -23 77q-33 84 -14 112q8 13 26 3q29 -15 40 -72q13 -67 32.5 -127.5
t27.5 -60.5z" />
    <glyph glyph-name="w" unicode="w" horiz-adv-x="461" 
d="M405 586q9 9 23 10t21 -8q6 -7 -9 -34q-15 -28 -40 -113q-24 -86 -49 -122q-38 -55 -66 -49.5t-64 74.5q-37 73 -52 73q-9 0 -18 -21q-9 -22 -27 -48q-18 -29 -29 -55q-11 -32 -24 -47t-28 -13q-11 2 -16.5 6.5t-9 25t-4.5 50.5t-2 91q-2 132 6 146q4 8 20 6
q17 -2 23.5 -22.5t6.5 -70.5q0 -36 2 -49t7 -15q10 -3 20 6t26 38q17 29 31.5 41t34.5 12q22 0 37 -21.5t27 -69.5q5 -21 19.5 -41.5t28.5 -12.5q13 8 29 40.5t25 71.5q8 36 23 71t28 50z" />
    <glyph glyph-name="x" unicode="x" horiz-adv-x="398" 
d="M316 568q13 15 28 15.5t30 -14.5l14 -15l-103 -105q-103 -104 -103 -114q0 -18 21 -49.5t51 -57.5q64 -58 20 -58q-15 0 -54.5 27.5t-61.5 53.5q-25 30 -32 30q-6 0 -47 -37q-30 -28 -41 -33.5t-21 4.5q-17 17 5 50q15 25 33 78.5t22 84.5q4 32 11.5 44.5t22.5 12.5
q14 0 21.5 -9.5t11.5 -33.5q4 -27 16 -33q7 -5 12.5 -1.5t17.5 18.5l61 68t65 74z" />
    <glyph glyph-name="y" unicode="y" horiz-adv-x="389" 
d="M325 642l31 30l13 -13q10 -10 10 -14t-8 -17q-16 -25 -38 -72.5t-25 -63.5q-1 -6 -17 -71t-16 -75q0 -22 37 10q33 29 36 13q1 -1 1 -3q0 -12 -22 -41t-41 -42l-27 -19l-20 -82q-21 -92 -27 -131.5t-2 -65.5q5 -42 -13 -49q-12 -5 -26 16q-12 21 -9 64t27 161
q11 55 11 84q0 17 -3.5 24t-17.5 17q-28 19 -79.5 70.5t-68.5 78.5q-23 33 -21 53q3 31 24 29q28 -3 50 -48q16 -31 65 -81.5t60 -46.5q17 8 29 70q5 25 31 108q18 52 26.5 69t29.5 38z" />
    <glyph glyph-name="z" unicode="z" horiz-adv-x="259" 
d="M130 516q65 6 81 5t27 -12q13 -14 10 -27q-4 -17 -68 -123q-29 -47 -24.5 -58.5t46.5 0.5q21 7 26.5 3t-2.5 -20q-4 -10 -3.5 -15.5t6.5 -11.5q10 -11 7.5 -19.5t-23.5 -31.5q-33 -38 -70 -38.5t-83 35.5q-74 58 -2 77q15 3 23.5 14t29.5 50q33 63 46 79q14 20 11 29
q-3 8 -22 8t-44 -9q-23 -8 -50 -8.5t-35 6.5q-7 8 -7 21.5t8 19.5q22 18 112 26zM206 256q2 7 -3 6q-6 -1 -31 -13q-27 -13 -27 -24q0 -5 9 -5q8 0 28.5 14t23.5 22z" />
    <glyph glyph-name="braceleft" unicode="{" 
 />
    <glyph glyph-name="bar" unicode="|" 
 />
    <glyph glyph-name="braceright" unicode="}" 
 />
    <glyph glyph-name="asciitilde" unicode="~" horiz-adv-x="434" 
d="M70 407q34 24 79 14.5t120 -55.5q56 -35 73.5 -35t42.5 21q39 34 39 16q0 -7 -28 -43q-27 -35 -47 -40t-61 11q-41 18 -52 28q-41 38 -96.5 37t-76.5 -39l-15 -27l-8 -15l-15 14q-15 14 -15 31q0 16 18.5 41.5t41.5 40.5z" />
    <glyph glyph-name="cent" unicode="&#xa2;" 
 />
    <glyph glyph-name="sterling" unicode="&#xa3;" horiz-adv-x="591" 
d="M349 708q20 6 68 2q30 -1 42 -4t21 -12q13 -12 14.5 -20t-8.5 -16t-33 1q-13 5 -24 5.5t-26.5 -2.5t-24.5 -3q-21 -1 -48 -27l-26 -26v-51q0 -38 2.5 -46.5t17.5 -17.5q14 -9 34.5 -10.5t104.5 -0.5q118 3 118 -5t-9 -8q-10 0 -35 -13q-24 -13 -103 -19q-77 -5 -89 -2
q-13 5 -21 -5.5t-8 -31.5q0 -28 -7 -62q-6 -26 -4.5 -33t13.5 -17q17 -14 15.5 -20t-20.5 -10q-22 -4 -22 -9q0 -9 -30 -38t-47 -37q-23 -11 -55 -11t-56 11q-22 10 -55 44.5t-37 52.5q-9 35 41 58q52 23 136 -5l28.5 -9t19 -2.5t12.5 2.5t6.5 12t4 20.5t0.5 32.5l2 59
l-21 14q-23 16 -30 29q-6 10 -3.5 15.5t18.5 18.5q17 14 20 22.5t3 35.5q0 37 7 55q9 24 38.5 50.5t55.5 32.5zM204 279q-21 7 -70.5 8t-56.5 -7q-14 -13 -4 -32.5t37 -33.5q14 -7 50 -7q25 0 34 3.5t23 18.5q19 19 16 30t-29 20z" />
    <glyph glyph-name="section" unicode="&#xa7;" 
 />
    <glyph glyph-name="guillemotleft" unicode="&#xab;" horiz-adv-x="519" 
d="M264 567q15 14 23.5 16t16.5 -6q20 -21 -11.5 -54.5t-136.5 -104.5q-75 -50 -30 -50q21 0 61 -8l43 -7l33 29q88 77 128.5 105t70.5 33q13 2 17.5 1t4.5 -7q0 -8 -81.5 -80t-90.5 -72q-7 0 -7 -10q1 -9 23 -8.5t68 10.5q41 10 77 9t36 -11q0 -9 -13 -9t-63 -21
q-82 -34 -119 -38.5t-83 13.5q-29 11 -77 16q-52 6 -78 9.5t-43 9t-20.5 12t-2.5 17.5q1 9 13.5 20.5t47.5 33.5l112 79t57 47q4 6 24 26z" />
    <glyph glyph-name="guillemotright" unicode="&#xbb;" horiz-adv-x="555" 
d="M298 513q8 9 14.5 9t27.5 -9q22 -9 54 -9q31 0 79 -12t60 -22q12 -11 12 -24t-26 -48.5t-69 -78.5q-44 -46 -52 -64q-6 -15 -15.5 -20t-19.5 3q-18 16 -2 46.5t70 83.5q24 24 32 35.5t8 23.5v20l-56 2q-98 5 -117 39q-8 15 0 25zM34 511q19 6 87.5 2t94.5 -12
q29 -9 38.5 -22.5t8.5 -43.5q0 -28 -24 -71l-46 -88q-22 -43 -35 -57.5t-25 -7.5q-10 7 -12 19q-2 10 13 42.5t35 61.5q18 26 30.5 52t12.5 36q0 12 -14 24q-9 9 -24.5 11.5t-67.5 4.5q-48 1 -65.5 3.5t-24.5 9.5q-9 9 -4 20t22 16z" />
    <glyph glyph-name="questiondown" unicode="&#xbf;" 
 />
    <glyph glyph-name="Agrave" unicode="&#xc0;" 
 />
    <glyph glyph-name="Aacute" unicode="&#xc1;" 
 />
    <glyph glyph-name="Acircumflex" unicode="&#xc2;" 
 />
    <glyph glyph-name="Adieresis" unicode="&#xc4;" 
 />
    <glyph glyph-name="Ccedilla" unicode="&#xc7;" 
 />
    <glyph glyph-name="Egrave" unicode="&#xc8;" 
 />
    <glyph glyph-name="Eacute" unicode="&#xc9;" 
 />
    <glyph glyph-name="Ecircumflex" unicode="&#xca;" 
 />
    <glyph glyph-name="Edieresis" unicode="&#xcb;" 
 />
    <glyph glyph-name="Icircumflex" unicode="&#xce;" 
 />
    <glyph glyph-name="Idieresis" unicode="&#xcf;" 
 />
    <glyph glyph-name="Ntilde" unicode="&#xd1;" 
 />
    <glyph glyph-name="Oacute" unicode="&#xd3;" 
 />
    <glyph glyph-name="Ocircumflex" unicode="&#xd4;" 
 />
    <glyph glyph-name="Odieresis" unicode="&#xd6;" 
 />
    <glyph glyph-name="Ugrave" unicode="&#xd9;" 
 />
    <glyph glyph-name="Uacute" unicode="&#xda;" 
 />
    <glyph glyph-name="Ucircumflex" unicode="&#xdb;" 
 />
    <glyph glyph-name="Udieresis" unicode="&#xdc;" 
 />
    <glyph glyph-name="germandbls" unicode="&#xdf;" 
 />
    <glyph glyph-name="agrave" unicode="&#xe0;" 
 />
    <glyph glyph-name="aacute" unicode="&#xe1;" 
 />
    <glyph glyph-name="acircumflex" unicode="&#xe2;" 
 />
    <glyph glyph-name="adieresis" unicode="&#xe4;" 
 />
    <glyph glyph-name="ccedilla" unicode="&#xe7;" 
 />
    <glyph glyph-name="egrave" unicode="&#xe8;" 
 />
    <glyph glyph-name="eacute" unicode="&#xe9;" 
 />
    <glyph glyph-name="ecircumflex" unicode="&#xea;" 
 />
    <glyph glyph-name="edieresis" unicode="&#xeb;" 
 />
    <glyph glyph-name="icircumflex" unicode="&#xee;" 
 />
    <glyph glyph-name="idieresis" unicode="&#xef;" 
 />
    <glyph glyph-name="oacute" unicode="&#xf3;" 
 />
    <glyph glyph-name="ocircumflex" unicode="&#xf4;" 
 />
    <glyph glyph-name="odieresis" unicode="&#xf6;" 
 />
    <glyph glyph-name="ugrave" unicode="&#xf9;" 
 />
    <glyph glyph-name="uacute" unicode="&#xfa;" 
 />
    <glyph glyph-name="ucircumflex" unicode="&#xfb;" 
 />
    <glyph glyph-name="udieresis" unicode="&#xfc;" 
 />
    <glyph glyph-name="eogonek" unicode="&#x119;" 
 />
    <glyph glyph-name="quoteright" unicode="&#x2019;" horiz-adv-x="164" 
d="M80 714q21 18 43 17q23 -2 29 -13q4 -7 -1 -15t-28 -28q-21 -21 -30 -34.5t-18 -38.5q-13 -41 -11 -83q2 -31 4.5 -38t17.5 -14q22 -11 21 -27q-1 -10 -14 -10q-16 0 -36.5 12t-29.5 27q-14 23 -16.5 47.5t6.5 67.5q18 91 63 130z" />
    <glyph glyph-name="quotedblleft" unicode="&#x201c;" horiz-adv-x="268" 
d="M205 280q18 20 37 -7q23 -32 13 -73v-3q-5 -16 -19 -37.5t-25 -30.5q-5 -4 -14 -6t-16 -1.5t-7 3.5q0 5 14 32q14 31 12 71q-2 42 5 52zM26 255q0 12 2 16t9 4q16 0 25.5 -6t19.5 -23q12 -19 14 -57t-8 -56q-6 -11 -33 -30t-36 -19q-21 0 3 42q1 2 3 5q16 24 18.5 50
t-8.5 41q-9 13 -9 33z" />
    <glyph glyph-name="quotedblright" unicode="&#x201d;" horiz-adv-x="286" 
d="M71 720q15 11 36.5 10.5t29.5 -11.5q4 -7 -0.5 -14.5t-24.5 -26.5q-46 -44 -55 -108q-7 -58 -33 -26q-16 22 -13 65q1 17 24 59t36 52zM223 661q11 8 24.5 8.5t21.5 -6.5q9 -9 6 -17.5t-20 -28.5q-22 -26 -22 -50q0 -16 4 -23.5t18 -17.5q44 -35 -7 -35q-49 0 -65 57
q-8 30 3.5 63t36.5 50z" />
    <glyph glyph-name="bullet" unicode="&#x2022;" 
 />
    <glyph glyph-name="Euro" unicode="&#x20ac;" horiz-adv-x="430" 
d="M252 659q20 5 58.5 1.5t61.5 -12.5t38 -27.5t8 -29.5q-14 -22 -57 0q-27 14 -64 15t-62 -12q-28 -14 -50.5 -37t-20.5 -36q2 -10 7.5 -12t28.5 -3q31 0 60 -5q16 -3 21 -6.5t5 -12.5q0 -22 -60 -22q-24 0 -52.5 -8t-39.5 -18q-33 -29 9 -29q24 1 71 13q49 12 73 9
q23 -5 27 2t13 6t9 -8q0 -4 -3.5 -7t-7.5 -3q-11 0 -32 -15q-21 -14 -91 -35l-70 -19v-20q0 -15 16 -34t38 -30q15 -8 44.5 -6.5t55.5 11.5q26 9 55.5 32.5t36.5 39.5q8 17 20 14q6 -1 6 -8q0 -9 -6 -12q-5 -4 -10 -21q-4 -17 -20.5 -38t-37.5 -37q-21 -15 -66.5 -24.5
t-70.5 -4.5q-28 5 -59.5 28t-47.5 50q-11 20 -19.5 27.5t-20.5 11.5q-34 8 -36 23t28 28l23 12l-2 40q-1 26 1 36.5t12 22.5q7 9 35 49q18 27 37 48q17 19 54 44t54 29z" />
  </font>
</defs>
</svg>
